_______ Visit us at our Semi Public Bittorrent Community ________
  
http://p2pdl.com  _____________________________  http://p2pdl.com


Aashiqui 2 2013 BRRip 480p x264 Hindi ESubs - ViZNU


Genre: Drama | Musical | Romance
Plot: Rahul loses his fans and fame due to alcoholism. But he then decides to turn
a small time singer into a rising star.   
Director: Mohit Suri
Stars: Aditya Roy Kapoor, Shraddha Kapoor, Shaad Randhawa.
Rated: U

Info: 
http://www.imdb.com/title/tt2203308/

Trailer:


Format                         : MPEG-4
File size                      : 441 MiB
Duration                       : 2h 12mn
Overall bit rate               : 465 Kbps
Source                         : 720p.Bluray.DDR

Video
Format                         : AVC
Bit rate                       : 422 Kbps
Width                          : 720 pixels
Height                         : 304 pixels
Display aspect ratio           : 2.35:1
Frame rate mode                : Constant
Frame rate                     : 24.000 fps
Stream size                    : 400 MiB (91%)
Writing library                : x264 core 130 r2273

Audio
Format                         : AAC
Bit rate mode                  : Variable
Bit rate                       : 39.9 Kbps
Channel(s)                     : 2 channels
Channel positions              : Front: L R
Sampling rate                  : 48.0 KHz
Stream size                    : 37.9 MiB (9%)
Language                       : Hindi

Subtitle                       : Yes(English)
 
http://ultraimg.com/images/Nsb7H.png 
http://ultraimg.com/images/IOsXV.png 
http://ultraimg.com/images/diQmw.png 
http://ultraimg.com/images/eI6Ss.png 
http://ultraimg.com/images/ZPzN.png 
http://ultraimg.com/images/dw3lJ.png 
http://ultraimg.com/images/af2Vo.png 
http://ultraimg.com/images/eA5Yb.png

----------------------------------------------------------------------------------------------------


Encoded using revolutionary 10bit encoding, which enables us to provide you more crispier 
and sharper images at small sizes, just make sure you follow our instructions without a fault.
Recommend to you to use latest version of VLC player. Install K-Lite Codec Pack or shark007 codecs
in case of any kind of problem in playback (For non-VLC Media Player users). Alternatively, install
Core AVC codecs, the fastest decoder that there is coupled with Community Center Codec Pack and play
on Windows Media Player Classic. Check sample to be sure.
Enjoy!

Encoder Notes:Looking For Early Access To Anything You Can Provide DVDScr, R5, DVDR, BluRay, Direct
Audio, Music Releases and Seedboxes. We require dedicated servers, so as to do more 
and fast releases of movies.
If You Got anything to offer please contact us at "contact@p2pdl.com".

Face book Fan Page:   
http://fbl.me/BC